<svg width="349" height="231" viewBox="0 0 437 289" xmlns="http://www.w3.org/2000/svg" id="star-footer" class="fill-teal-green print:hidden opacity-20 w-fit !absolute top-0 end-8 hidden lg:block"><g style="mix-blend-mode:overlay"><path d="M400.701 169.984L436.929 146.059L436.929 142.071L400.701 118.146L428.422 118.146L437 94.2852L437 83.8019L423.175 45.1485L437 36.0158L437 32.0283L422.041 41.9328L416.298 25.9183L397.724 25.9183L403.466 9.90386L388.437 -0.000645388L382.41 -0.000645318L343.134 25.9183L313.145 25.9183L303.858 -0.000644404L300.101 -0.00064436L290.813 25.9183L260.754 25.9183L221.478 -0.000643446L215.452 -0.000643376L176.175 25.9183L146.186 25.9183L136.899 -0.000642462L133.213 -0.000642419L123.925 25.9183L93.9365 25.9183L54.6605 -0.000641505L48.6343 -0.000641435L33.6044 9.90387L39.347 25.9183L20.7724 25.9183L15.0299 41.9328L-3.87727e-05 32.0283L-3.8169e-05 36.0158L13.8956 45.1485L-3.09345e-05 83.8019L-3.09442e-05 83.7376L-2.93571e-05 94.2209L-2.93668e-05 94.1566L8.5784 118.082L36.2985 118.082L-2.21225e-05 142.007L-2.15188e-05 145.995L36.2985 169.92L8.57841 169.92L-1.42647e-05 193.909L-1.42744e-05 193.845L-1.26873e-05 204.328L-1.2697e-05 204.264L13.8956 242.982L-5.45272e-06 252.114L-4.84903e-06 256.102L15.0299 246.197L20.7724 262.212L39.347 262.212L33.6045 278.226L48.6344 288.131L54.6605 288.131L93.9366 262.212L123.925 262.212L133.213 288.131L136.899 288.131L146.187 262.212L176.175 262.212L215.452 288.131L221.478 288.131L260.754 262.212L290.743 262.212L300.03 288.131L303.787 288.131L313.075 262.212L343.063 262.212L382.34 288.131L388.366 288.131L403.395 278.226L397.653 262.212L416.228 262.212L421.97 246.197L436.929 256.102L436.929 252.114L423.104 242.982L436.929 204.328L436.929 193.845L428.351 169.984L400.701 169.984ZM43.0336 25.9183L37.7164 11.1259L51.541 1.99313L87.8395 25.9183L43.0336 25.9183ZM393.966 262.212L399.283 277.004L385.459 286.137L349.16 262.212L393.966 262.212ZM394.675 118.146L433.951 144.065L394.675 169.984L364.687 169.984L355.399 144.065L364.687 118.146L394.675 118.146ZM326.261 215.069L302.015 231.083L277.769 215.069L262.739 173.2L311.302 173.2L335.548 189.214L326.261 215.069ZM353.556 201.048L377.873 217.063L392.903 258.932L344.339 258.932L320.093 242.917L329.381 216.998L353.556 201.048ZM164.194 211.853L178.089 173.136L195.246 173.136L200.563 187.928L164.194 211.853ZM218.5 180.082L232.396 189.214L218.5 227.868L204.675 189.214L218.5 180.082ZM159.302 215.069L134.985 231.083L110.739 215.069L101.452 189.214L125.698 173.2L174.261 173.2L159.302 215.069ZM201.627 191.208L216.657 233.077L207.369 258.996L177.381 258.996L153.134 242.982L162.422 217.063L201.627 191.208ZM235.373 191.208L274.649 217.127L283.937 243.046L259.69 259.06L229.701 259.06L220.414 233.141L235.373 191.208ZM272.806 211.853L236.507 187.928L241.825 173.136L258.981 173.136L272.806 211.853ZM233.53 185.999L218.5 176.094L203.47 185.999L197.728 169.984L179.224 169.984L184.966 153.97L169.936 144.065L184.966 134.161L179.224 118.146L197.798 118.146L203.541 102.132L218.571 112.036L233.601 102.132L239.343 118.146L257.918 118.146L252.175 134.161L267.205 144.065L252.175 153.97L257.918 169.984L239.343 169.984L233.53 185.999ZM163.91 144.065L124.634 169.984L94.6455 169.984L85.3582 144.065L94.6455 118.146L124.634 118.146L163.91 144.065ZM130.66 118.146L175.537 118.146L180.854 132.939L166.959 142.071L130.66 118.146ZM166.888 146.059L180.784 155.192L175.466 169.984L130.59 169.984L166.888 146.059ZM110.739 73.0613L134.985 57.0468L159.302 73.0613L174.332 114.93L125.769 114.93L101.522 98.9159L110.739 73.0613ZM83.444 87.082L59.1977 71.0675L44.1679 29.1984L92.7313 29.1984L116.978 45.2128L107.69 71.0675L83.444 87.082ZM353.556 138.856L344.978 114.93L317.257 114.93L339.66 100.138L331.082 76.2127L353.485 91.0052L375.888 76.2127L367.31 100.138L389.713 114.93L362.063 114.93L353.556 138.856ZM306.34 118.146L270.041 142.071L256.145 132.939L261.463 118.146L306.34 118.146ZM335.548 98.9802L311.302 114.995L262.739 114.995L277.769 73.1256L302.015 57.1111L326.261 73.1256L335.548 98.9802ZM272.806 76.277L258.981 114.93L241.825 114.93L236.507 100.138L272.806 76.277ZM218.5 108.113L204.675 98.9802L218.5 60.2626L232.395 98.9802L218.5 108.113ZM235.373 96.9865L220.343 55.0531L229.631 29.1341L259.619 29.1341L283.866 45.1485L274.578 71.0675L235.373 96.9865ZM201.627 96.9865L162.351 71.0675L153.063 45.1485L177.31 29.1341L207.299 29.1341L216.586 55.0531L201.627 96.9865ZM164.194 76.277L200.493 100.202L195.175 114.995L178.019 114.995L164.194 76.277ZM270.112 146.059L306.41 169.984L261.604 169.984L256.287 155.192L270.112 146.059ZM312.366 169.984L273.089 144.065L312.366 118.146L342.354 118.146L351.642 144.065L342.355 169.984L312.366 169.984ZM435.157 89.0757L425.869 114.995L395.881 114.995L371.634 98.9802L380.922 73.0613L420.198 47.1423L435.157 89.0757ZM413.675 29.1341L418.992 43.9265L382.694 67.8517L396.59 29.1341L413.675 29.1341ZM392.832 29.1341L377.802 71.0032L353.485 87.0176L329.239 71.0032L319.951 45.1485L344.198 29.1341L392.832 29.1341ZM385.388 2.05743L399.213 11.1902L393.895 25.9826L349.09 25.9826L385.388 2.05743ZM301.944 5.27319L310.522 29.1984L338.243 29.1984L315.839 43.9909L324.418 67.9161L302.015 53.1236L279.612 67.9161L288.19 43.9909L265.787 29.1984L293.507 29.1984L301.944 5.27319ZM218.5 2.05743L254.799 25.9826L227.078 25.9826L218.5 49.9078L209.922 25.9826L182.201 25.9826L218.5 2.05743ZM135.056 5.27319L143.634 29.1984L171.354 29.1984L148.952 43.9909L157.53 67.9161L135.127 53.1236L112.724 67.9161L121.302 43.9909L98.8992 29.1984L126.619 29.1984L135.056 5.27319ZM18.0074 43.9265L23.3246 29.1341L40.4814 29.1341L54.3769 67.8517L18.0074 43.9265ZM11.1306 114.93L1.84332 89.0114L16.8731 47.1423L56.1493 73.0613L65.4366 98.9802L41.1903 114.995L11.1306 114.995L11.1306 114.93ZM74.8657 114.93L47.1455 114.93L69.5485 100.138L60.9701 76.2127L83.3732 91.0052L105.776 76.2127L97.1978 100.138L119.601 114.93L92.0224 114.93L83.444 138.856L74.8657 114.93ZM42.3247 169.984L3.04852 144.065L42.3246 118.146L72.3134 118.146L81.6008 144.065L72.3134 169.984L42.3247 169.984ZM83.444 149.275L92.0224 173.2L119.743 173.2L97.3396 187.992L105.918 211.918L83.5149 197.125L61.112 211.918L69.6903 187.992L47.2873 173.2L75.0075 173.2L83.444 149.275ZM1.84334 199.119L11.1306 173.2L41.1194 173.2L65.3657 189.214L56.0784 215.133L16.8023 241.052L1.84334 199.119ZM23.3246 258.996L18.0075 244.204L54.306 220.278L40.4104 258.932L23.3246 258.932L23.3246 258.996ZM44.1679 258.996L59.1977 217.127L83.4441 201.113L107.69 217.127L116.978 243.046L92.7314 259.06L44.1679 259.06L44.1679 258.996ZM51.612 286.137L37.7873 277.004L43.1045 262.212L87.9104 262.212L51.612 286.137ZM135.056 282.921L126.478 258.996L98.7575 258.996L121.16 244.204L112.582 220.278L134.985 235.071L157.388 220.278L148.81 244.204L171.213 258.996L143.563 258.996L135.056 282.921ZM218.5 286.137L182.272 262.212L209.992 262.212L218.571 238.287L227.149 262.212L254.869 262.212L218.5 286.137ZM301.944 282.921L293.366 258.996L265.716 258.996L288.119 244.204L279.541 220.278L301.944 235.071L324.347 220.278L315.769 244.204L338.172 258.996L310.452 258.996L301.944 282.921ZM418.992 244.204L413.675 258.996L396.519 258.996L382.694 220.278L418.992 244.204ZM425.869 173.2L435.157 199.119L420.127 241.052L380.851 215.133L371.563 189.214L395.81 173.2L425.869 173.2ZM389.784 173.2L367.38 187.992L375.959 211.917L353.556 197.125L331.153 211.917L339.731 187.992L317.328 173.2L345.048 173.2L353.627 149.275L362.134 173.2L389.784 173.2Z" fill="url(#star-footer_:S3:)"></path></g><defs><linearGradient id="star-footer_:S3:" x1="6.42647" y1="138.802" x2="480.912" y2="136.09" gradientUnits="userSpaceOnUse"><stop stop-color="#F8F8F8"></stop><stop offset="1" stop-color="#929292"></stop></linearGradient></defs></svg>